<?xml version="1.0" standalone="no"?>
<!DOCTYPE svg PUBLIC "-//W3C//DTD SVG 20010904//EN"
 "http://www.w3.org/TR/2001/REC-SVG-20010904/DTD/svg10.dtd">
<svg version="1.0" xmlns="http://www.w3.org/2000/svg"
 width="512.000000pt" height="512.000000pt" viewBox="0 0 512.000000 512.000000"
 preserveAspectRatio="xMidYMid meet">

<g transform="translate(0.000000,512.000000) scale(0.100000,-0.100000)"
fill="#000000" stroke="none">
<path d="M2455 4857 c-125 -61 -196 -206 -165 -336 27 -114 118 -198 243 -225
l27 -6 0 -220 c0 -181 -2 -220 -14 -220 -18 0 -158 41 -330 96 -195 62 -320
86 -431 82 -130 -4 -172 -28 -343 -191 -75 -73 -154 -142 -173 -155 -41 -25
-116 -42 -154 -34 -22 4 -25 10 -25 43 l0 39 -55 0 c-52 0 -55 -1 -55 -26 0
-22 -3 -24 -23 -19 -38 12 -100 51 -151 96 l-49 44 7 -45 c16 -99 94 -208 176
-245 39 -18 40 -19 40 -72 l0 -53 -67 0 -68 0 -173 -533 c-96 -292 -216 -664
-269 -824 l-95 -293 -157 -2 -156 -3 95 -96 c104 -105 185 -158 324 -215 297
-121 737 -137 1084 -39 185 53 389 178 483 297 l42 53 -138 5 -138 5 -202 630
c-111 347 -230 717 -264 823 l-62 192 -64 0 -65 0 0 40 0 40 73 0 c155 0 248
32 412 140 121 80 168 100 240 100 72 0 156 -32 304 -114 172 -96 276 -141
370 -162 l83 -19 -8 -459 -7 -460 -89 -185 -90 -186 8 -537 7 -538 -247 0
-246 0 0 -94 0 -95 -195 -320 c-107 -177 -195 -323 -195 -326 0 -3 500 -5
1110 -5 716 0 1110 3 1110 10 0 5 -106 154 -235 330 l-235 321 0 89 0 90 -212
2 -213 3 -5 550 -5 550 -87 178 -88 179 0 453 0 452 70 17 c101 25 170 55 344
151 179 99 247 125 326 125 72 0 110 -16 230 -95 159 -105 233 -133 375 -144
l80 -6 0 -35 0 -35 -67 -3 -67 -3 -126 -387 c-70 -213 -191 -583 -269 -822
l-142 -435 -153 -5 -154 -5 42 -53 c95 -120 295 -242 486 -297 339 -97 781
-81 1079 39 138 55 221 110 326 216 l95 95 -141 3 -140 3 -265 824 -264 825
-67 0 -68 0 0 45 c0 35 4 47 18 52 127 42 218 144 241 269 l8 44 -41 -33 c-58
-48 -118 -84 -176 -107 l-50 -20 0 35 0 35 -49 0 -50 0 -3 -42 -3 -43 -40 4
c-68 6 -125 44 -274 185 -85 81 -165 148 -195 163 -119 61 -325 37 -662 -78
-104 -35 -234 -69 -263 -69 -21 0 -21 4 -21 220 0 201 2 221 18 226 144 45
233 153 233 284 1 119 -58 220 -157 270 -73 37 -190 40 -259 7z m-1475 -2322
l0 -775 -281 0 c-221 0 -280 3 -277 13 2 6 116 355 253 775 l249 762 28 0 28
0 0 -775z m377 105 c117 -366 229 -713 247 -772 l34 -108 -274 0 -274 0 0 776
0 775 27 -3 c26 -3 31 -16 240 -668z m2718 -105 l0 -770 -277 -3 c-199 -2
-278 1 -278 9 0 11 489 1517 497 1532 3 5 17 7 31 5 l27 -3 0 -770z m170 753
c4 -13 115 -359 246 -769 131 -410 239 -749 239 -752 0 -4 -124 -7 -275 -7
l-275 0 0 775 0 775 29 0 c22 0 31 -6 36 -22z"/>
</g>
</svg>
