<?xml version="1.0" standalone="no"?>
<!DOCTYPE svg PUBLIC "-//W3C//DTD SVG 20010904//EN"
 "http://www.w3.org/TR/2001/REC-SVG-20010904/DTD/svg10.dtd">
<svg version="1.0" xmlns="http://www.w3.org/2000/svg"
 width="512.000000pt" height="512.000000pt" viewBox="0 0 512.000000 512.000000"
 preserveAspectRatio="xMidYMid meet">

<g transform="translate(0.000000,512.000000) scale(0.100000,-0.100000)"
fill="#000000" stroke="none">
<path d="M1481 4890 c-191 -40 -441 -273 -501 -468 -41 -133 -16 -254 83 -402
17 -25 174 -190 351 -368 l321 -323 -388 -382 -388 -382 1 -388 0 -388 25 -24
24 -25 474 0 c533 0 535 0 606 -71 91 -92 93 -242 4 -334 -70 -72 -45 -69
-668 -75 l-560 -5 -65 -31 c-95 -46 -153 -101 -197 -192 -36 -72 -38 -81 -38
-172 0 -91 2 -100 37 -172 45 -91 103 -147 196 -191 l67 -32 581 -3 c561 -3
582 -2 605 17 33 27 33 95 0 122 -22 18 -48 19 -575 19 -620 0 -613 -1 -685
71 -95 96 -93 248 5 339 24 22 56 46 72 53 20 9 177 13 587 17 l560 5 67 32
c93 44 151 100 196 191 35 72 37 81 37 171 0 87 -3 102 -32 163 -17 37 -50 87
-73 112 -43 47 -164 116 -204 116 -11 0 -26 4 -33 8 -8 5 90 111 287 312 l298
305 308 -306 307 -307 -52 -11 c-123 -26 -222 -104 -278 -219 -36 -72 -38 -81
-38 -172 0 -91 2 -100 37 -172 45 -91 103 -147 196 -191 l67 -32 560 -5 c623
-6 598 -3 668 -75 47 -48 71 -121 64 -190 -6 -62 -25 -101 -68 -144 -69 -69
-34 -65 -672 -71 l-579 -5 -19 -24 c-27 -33 -24 -77 6 -107 l25 -25 582 3 583
3 67 32 c93 44 151 100 196 191 35 72 37 81 37 172 0 91 -2 100 -37 172 -45
91 -103 147 -196 191 l-67 32 -560 5 c-623 6 -598 3 -668 75 -112 115 -76 308
72 382 33 16 79 18 533 23 273 3 498 7 501 10 24 27 27 71 27 431 l0 383 -157
156 c-87 86 -266 260 -398 387 l-240 231 291 294 c160 161 310 318 333 347
132 169 166 360 93 511 -54 113 -246 310 -357 368 -67 34 -195 42 -280 17 -75
-22 -178 -73 -241 -121 -27 -21 -183 -168 -347 -328 -164 -160 -302 -292 -307
-294 -5 -2 -154 137 -331 308 -191 184 -351 330 -393 357 -117 79 -246 113
-345 93z m184 -185 c59 -28 219 -155 223 -176 1 -8 -124 -138 -279 -289 l-282
-275 -61 67 c-79 86 -123 161 -138 231 -10 48 -9 64 5 111 43 135 239 324 371
357 45 11 104 2 161 -26z m2000 -4 c78 -41 225 -193 265 -275 43 -87 44 -140
3 -228 -27 -57 -128 -195 -164 -225 -13 -10 -62 35 -298 271 l-283 283 68 61
c80 72 168 122 244 138 67 14 100 9 165 -25z m-1443 -486 c112 -107 203 -198
203 -203 0 -10 -561 -562 -572 -562 -4 0 -98 90 -208 200 l-200 200 280 280
c154 154 283 280 287 280 4 0 98 -88 210 -195z m1257 -202 l165 -161 -120
-124 c-65 -69 -434 -445 -819 -836 l-700 -712 -6 36 c-11 64 -36 79 -144 82
l-95 4 0 88 c0 79 -3 92 -24 116 -22 26 -29 28 -120 32 l-96 4 0 88 c0 101
-13 127 -74 144 l-37 11 832 814 831 813 122 -118 c66 -66 195 -192 285 -281z
m82 -1091 l145 -142 -33 -6 c-57 -11 -73 -43 -73 -144 l0 -88 -96 -4 c-91 -4
-98 -6 -120 -32 -22 -24 -24 -37 -24 -122 l0 -94 -94 0 c-109 0 -135 -13 -145
-73 l-6 -37 -223 223 -224 224 293 297 292 297 81 -78 c45 -43 147 -142 227
-221z m-2201 -396 c0 -79 3 -97 21 -120 20 -25 24 -26 120 -26 l99 0 0 -94 c0
-79 3 -97 21 -120 20 -25 24 -26 120 -26 l99 0 0 -62 0 -62 -57 -58 -57 -58
-303 0 -303 0 0 304 0 304 63 56 c60 53 64 55 120 56 l57 0 0 -94z m2578 34
l62 -59 0 -301 0 -300 -303 0 -303 0 -57 58 c-56 56 -57 59 -57 114 l0 56 100
7 c132 9 140 18 140 151 l0 94 99 0 c96 0 100 1 120 26 18 23 21 41 21 120 l0
94 58 0 c56 -1 58 -2 120 -60z"/>
<path d="M2522 1284 c-13 -8 -54 -78 -92 -154 -42 -84 -76 -140 -87 -143 -10
-3 -76 -13 -148 -23 -139 -18 -170 -30 -186 -71 -16 -43 6 -76 120 -183 l106
-100 -27 -157 c-31 -177 -28 -197 30 -220 31 -13 37 -11 177 62 l144 75 128
-69 c70 -37 138 -71 150 -75 32 -10 81 19 90 52 3 15 -3 87 -15 162 -12 74
-22 143 -22 152 0 9 52 68 116 131 113 111 117 116 110 148 -12 59 -30 68
-177 90 -74 10 -144 21 -157 24 -17 4 -39 38 -92 144 -66 133 -95 171 -130
171 -9 0 -26 -7 -38 -16z m83 -345 c44 -90 59 -101 150 -113 28 -4 63 -9 78
-12 l29 -6 -71 -73 c-81 -84 -83 -92 -45 -263 4 -22 0 -21 -82 22 -48 25 -97
46 -108 46 -10 0 -57 -20 -103 -45 -46 -25 -83 -43 -83 -41 0 2 7 40 15 83 23
118 23 117 -56 199 -81 83 -85 75 45 93 83 12 100 26 146 121 19 38 37 70 40
70 3 0 24 -37 45 -81z"/>
</g>
</svg>
