<?xml version="1.0" standalone="no"?>
<!DOCTYPE svg PUBLIC "-//W3C//DTD SVG 20010904//EN"
 "http://www.w3.org/TR/2001/REC-SVG-20010904/DTD/svg10.dtd">
<svg version="1.0" xmlns="http://www.w3.org/2000/svg"
 width="512.000000pt" height="512.000000pt" viewBox="0 0 512.000000 512.000000"
 preserveAspectRatio="xMidYMid meet">

<g transform="translate(0.000000,512.000000) scale(0.100000,-0.100000)"
fill="#000000" stroke="none">
<path d="M2480 4947 c-49 -16 -133 -102 -148 -153 -28 -94 -8 -168 63 -240 31
-32 64 -54 84 -59 41 -9 37 -12 -33 -30 -172 -45 -306 -178 -351 -350 -8 -33
-15 -72 -15 -87 l0 -28 480 0 480 0 0 28 c0 15 -7 54 -15 87 -45 172 -179 305
-351 350 -32 8 -59 16 -61 18 -2 2 15 9 36 16 26 7 55 28 83 60 91 101 91 221
1 321 -65 72 -158 97 -253 67z"/>
<path d="M1200 4307 c-19 -6 -58 -34 -85 -62 -71 -70 -91 -145 -63 -239 16
-52 102 -141 147 -151 41 -9 37 -12 -33 -30 -172 -45 -306 -178 -351 -350 -8
-33 -15 -72 -15 -87 l0 -28 480 0 480 0 0 28 c0 15 -7 54 -15 87 -45 172 -179
305 -351 350 -32 8 -59 16 -61 18 -2 2 15 9 36 16 26 7 55 28 83 60 91 101 91
221 1 321 -65 72 -158 97 -253 67z"/>
<path d="M3760 4307 c-49 -16 -133 -102 -148 -153 -28 -94 -8 -168 63 -240 31
-32 64 -54 84 -59 41 -9 37 -12 -33 -30 -172 -45 -306 -178 -351 -350 -8 -33
-15 -72 -15 -87 l0 -28 480 0 480 0 0 28 c0 15 -7 54 -15 87 -45 172 -179 305
-351 350 -32 8 -59 16 -61 18 -2 2 15 9 36 16 26 7 55 28 83 60 91 101 91 221
1 321 -65 72 -158 97 -253 67z"/>
<path d="M2425 3349 c-221 -43 -405 -163 -525 -340 -97 -141 -134 -268 -134
-449 -1 -225 75 -410 229 -565 154 -154 340 -230 565 -230 225 0 411 76 565
230 154 154 230 340 230 565 0 174 -36 297 -125 433 -112 173 -271 287 -480
344 -68 18 -258 25 -325 12z"/>
<path d="M560 3027 c-19 -6 -58 -34 -85 -62 -71 -70 -91 -145 -63 -239 16 -52
102 -141 147 -151 41 -9 37 -12 -33 -30 -172 -45 -306 -178 -351 -350 -8 -33
-15 -72 -15 -87 l0 -28 480 0 480 0 0 28 c0 15 -7 54 -15 87 -45 172 -179 305
-351 350 -32 8 -59 16 -61 18 -2 2 15 9 36 16 26 7 55 28 83 60 91 101 91 221
1 321 -65 72 -158 97 -253 67z"/>
<path d="M4400 3027 c-49 -16 -133 -102 -148 -153 -28 -94 -8 -168 63 -240 31
-32 64 -54 84 -59 41 -9 37 -12 -33 -30 -172 -45 -306 -178 -351 -350 -8 -33
-15 -72 -15 -87 l0 -28 480 0 480 0 0 28 c0 15 -7 54 -15 87 -45 172 -179 305
-351 350 -32 8 -59 16 -61 18 -2 2 15 9 36 16 26 7 55 28 83 60 91 101 91 221
1 321 -65 72 -158 97 -253 67z"/>
<path d="M1200 1747 c-19 -6 -58 -34 -85 -62 -71 -70 -91 -145 -63 -239 16
-52 102 -141 147 -151 41 -9 37 -12 -33 -30 -172 -45 -306 -178 -351 -350 -8
-33 -15 -72 -15 -87 l0 -28 480 0 480 0 0 28 c0 15 -7 54 -15 87 -45 172 -179
305 -351 350 -32 8 -59 16 -61 18 -2 2 15 9 36 16 26 7 55 28 83 60 91 101 91
221 1 321 -65 72 -158 97 -253 67z"/>
<path d="M3760 1747 c-49 -16 -133 -102 -148 -153 -28 -94 -8 -168 63 -240 31
-32 64 -54 84 -59 41 -9 37 -12 -33 -30 -172 -45 -306 -178 -351 -350 -8 -33
-15 -72 -15 -87 l0 -28 480 0 480 0 0 28 c0 15 -7 54 -15 87 -45 172 -179 305
-351 350 -32 8 -59 16 -61 18 -2 2 15 9 36 16 26 7 55 28 83 60 91 101 91 221
1 321 -65 72 -158 97 -253 67z"/>
<path d="M2480 1107 c-49 -16 -133 -102 -148 -153 -28 -94 -8 -168 63 -240 31
-32 64 -54 84 -59 41 -9 37 -12 -33 -30 -172 -45 -306 -178 -351 -350 -8 -33
-15 -72 -15 -87 l0 -28 480 0 480 0 0 28 c0 15 -7 54 -15 87 -45 172 -179 305
-351 350 -32 8 -59 16 -61 18 -2 2 15 9 36 16 26 7 55 28 83 60 91 101 91 221
1 321 -65 72 -158 97 -253 67z"/>
</g>
</svg>
