<?xml version="1.0" standalone="no"?>
<!DOCTYPE svg PUBLIC "-//W3C//DTD SVG 20010904//EN"
 "http://www.w3.org/TR/2001/REC-SVG-20010904/DTD/svg10.dtd">
<svg version="1.0" xmlns="http://www.w3.org/2000/svg"
 width="512.000000pt" height="512.000000pt" viewBox="0 0 512.000000 512.000000"
 preserveAspectRatio="xMidYMid meet">

<g transform="translate(0.000000,512.000000) scale(0.100000,-0.100000)"
fill="#000000" stroke="none">
<path d="M540 4884 c-155 -42 -266 -166 -291 -325 -6 -41 -9 -721 -7 -1874 3
-1699 4 -1813 21 -1862 36 -105 145 -215 250 -250 48 -17 132 -18 1130 -21
l1077 -3 0 -100 c0 -117 19 -164 80 -202 l35 -22 945 -3 c1043 -3 1000 -5
1054 59 44 52 48 91 44 414 -4 277 -6 305 -27 370 -55 170 -168 303 -326 383
-89 44 -136 55 -274 61 -124 6 -125 6 -132 33 -4 14 -4 47 -2 72 5 42 9 48 57
77 69 43 173 151 217 227 20 35 47 93 59 131 19 59 25 69 54 79 52 19 113 78
143 140 52 106 35 239 -42 322 -22 24 -23 32 -27 240 l-3 216 -33 66 c-90 184
-358 296 -718 301 l-123 2 -3 580 c-3 568 -4 581 -25 638 -42 111 -129 199
-243 244 -42 17 -129 18 -1440 20 -1205 2 -1403 0 -1450 -13z m2866 -158 c28
-13 65 -41 82 -62 63 -76 62 -69 62 -701 0 -555 -1 -573 -19 -573 -35 0 -191
-50 -258 -83 -88 -42 -175 -123 -210 -195 -28 -56 -28 -60 -31 -271 l-3 -215
-28 -35 c-57 -72 -66 -100 -66 -196 0 -73 4 -98 22 -130 25 -48 101 -121 145
-139 25 -11 35 -26 62 -97 17 -46 50 -111 73 -144 46 -68 139 -159 198 -195
52 -31 55 -36 55 -97 0 -85 3 -83 -124 -83 -199 0 -328 -52 -461 -185 -138
-137 -185 -262 -185 -493 l0 -132 -1077 2 -1078 3 -48 28 c-54 32 -102 92
-117 148 -7 24 -9 660 -8 1865 l3 1829 22 40 c28 52 68 89 123 114 45 20 58
21 1430 21 l1385 0 51 -24z m852 -1936 l81 -65 0 -260 c1 -198 -3 -275 -14
-324 -45 -189 -203 -348 -398 -397 -82 -21 -220 -15 -302 15 -118 42 -228 135
-290 246 -56 99 -65 154 -65 377 0 109 2 198 5 198 2 0 75 9 162 20 375 48
515 95 641 214 55 53 69 62 83 52 9 -6 52 -40 97 -76z m-346 -1289 c4 -24 17
-62 28 -83 l21 -40 -40 -46 c-22 -26 -58 -65 -80 -86 l-40 -39 -79 83 -79 84
24 47 c14 26 27 65 30 88 l6 42 101 -3 100 -3 8 -44z m447 -136 c140 -33 262
-129 325 -256 52 -104 57 -142 54 -459 l-3 -285 -432 -3 -433 -2 0 303 0 303
185 199 c102 110 185 203 185 207 0 12 49 9 119 -7z"/>
<path d="M993 4325 c-294 -79 -418 -414 -243 -657 154 -216 472 -236 649 -42
157 172 154 422 -8 585 -110 109 -258 151 -398 114z m271 -281 c9 -8 16 -29
16 -47 0 -26 -16 -47 -98 -129 -123 -123 -130 -124 -219 -36 -68 67 -77 94
-43 128 28 28 54 25 95 -12 l36 -31 72 71 c76 76 109 89 141 56z"/>
<path d="M1841 4134 c-12 -15 -21 -34 -21 -44 0 -10 9 -29 21 -44 l20 -26 685
0 c671 0 684 0 704 20 27 27 26 71 -3 98 l-23 22 -681 0 -682 0 -20 -26z"/>
<path d="M1841 3784 c-12 -15 -21 -34 -21 -44 0 -10 9 -29 21 -44 l20 -26 384
0 384 0 20 26 c12 15 21 34 21 44 0 10 -9 29 -21 44 l-20 26 -384 0 -384 0
-20 -26z"/>
<path d="M982 3134 c-95 -25 -174 -80 -232 -162 -152 -212 -76 -513 156 -624
172 -81 352 -51 485 81 231 232 122 623 -196 706 -72 18 -143 18 -213 -1z
m286 -276 c7 -7 12 -26 12 -42 0 -25 -18 -48 -102 -133 -75 -76 -109 -103
-128 -103 -33 0 -150 115 -150 147 0 28 33 63 60 63 10 0 36 -14 55 -32 l36
-31 72 71 c58 58 78 72 102 72 17 0 36 -5 43 -12z"/>
<path d="M1841 2944 c-12 -15 -21 -34 -21 -44 0 -10 9 -29 21 -44 l20 -26 488
0 c476 0 488 0 506 20 23 26 23 74 0 100 -18 20 -30 20 -506 20 l-488 0 -20
-26z"/>
<path d="M1841 2594 c-12 -15 -21 -34 -21 -44 0 -10 9 -29 21 -44 l20 -26 290
0 c276 0 290 1 309 20 11 11 20 33 20 50 0 17 -9 39 -20 50 -19 19 -33 20
-309 20 l-290 0 -20 -26z"/>
<path d="M965 1940 c-120 -39 -220 -133 -267 -250 -18 -44 -22 -75 -23 -155 0
-93 3 -105 34 -172 125 -268 470 -332 679 -126 211 209 148 558 -124 685 -87
41 -208 48 -299 18z m303 -272 c6 -6 12 -24 12 -42 0 -26 -16 -47 -102 -133
-75 -76 -109 -103 -128 -103 -33 0 -150 115 -150 147 0 29 33 63 62 63 12 0
37 -14 55 -32 l33 -32 80 78 c82 80 97 86 138 54z"/>
<path d="M1869 1779 c-26 -10 -49 -45 -49 -75 0 -8 11 -26 25 -39 l24 -25 479
0 c451 0 481 1 503 18 30 25 30 75 0 105 -22 22 -22 22 -489 24 -282 1 -477
-2 -493 -8z"/>
<path d="M1869 1429 c-26 -10 -49 -45 -49 -75 0 -8 11 -26 25 -39 l24 -25 284
0 c283 0 284 0 305 23 27 29 28 67 3 98 l-19 24 -274 2 c-159 1 -284 -2 -299
-8z"/>
<path d="M3459 2511 c-45 -46 -32 -123 26 -149 39 -18 60 -15 93 13 54 45 49
120 -9 150 -43 23 -77 18 -110 -14z"/>
<path d="M4019 2511 c-47 -48 -38 -116 21 -146 39 -20 62 -19 94 6 76 60 38
169 -59 169 -16 0 -38 -12 -56 -29z"/>
<path d="M3755 2375 c-22 -21 -25 -33 -25 -93 0 -59 3 -72 23 -90 30 -28 78
-29 102 -2 23 25 32 119 16 159 -12 28 -47 51 -77 51 -8 0 -26 -11 -39 -25z"/>
<path d="M3650 2030 c-26 -26 -26 -74 1 -101 75 -75 218 -77 295 -3 39 36 42
61 13 98 -23 30 -71 35 -103 11 -25 -19 -73 -19 -106 0 -36 20 -77 18 -100 -5z"/>
</g>
</svg>
