<?xml version="1.0" standalone="no"?>
<!DOCTYPE svg PUBLIC "-//W3C//DTD SVG 20010904//EN"
 "http://www.w3.org/TR/2001/REC-SVG-20010904/DTD/svg10.dtd">
<svg version="1.0" xmlns="http://www.w3.org/2000/svg"
 width="512.000000pt" height="512.000000pt" viewBox="0 0 512.000000 512.000000"
 preserveAspectRatio="xMidYMid meet">

<g transform="translate(0.000000,512.000000) scale(0.100000,-0.100000)"
fill="#000000" stroke="none">
<path d="M1988 5099 c-23 -12 -46 -35 -58 -59 -19 -38 -20 -58 -20 -520 0
-462 1 -482 20 -520 36 -71 69 -80 290 -80 l190 0 0 -115 0 -114 -429 -3
c-419 -3 -430 -4 -458 -24 -62 -47 -68 -69 -71 -296 l-4 -207 -198 -3 c-221
-3 -232 -7 -275 -79 -19 -33 -20 -52 -20 -519 0 -467 1 -486 20 -519 43 -73
54 -76 276 -79 l199 -3 0 -115 0 -114 -415 0 c-397 0 -418 -1 -455 -20 -72
-37 -80 -67 -80 -305 l0 -205 -190 0 c-221 0 -254 -9 -290 -80 -19 -38 -20
-58 -20 -520 0 -462 1 -482 20 -520 13 -26 34 -47 60 -60 38 -19 58 -20 570
-20 512 0 532 1 570 20 26 13 47 34 60 60 19 38 20 58 20 520 0 462 -1 482
-20 520 -36 71 -69 80 -290 80 l-190 0 0 115 0 115 805 0 805 0 0 -115 0 -115
-190 0 c-221 0 -254 -9 -290 -80 -19 -38 -20 -58 -20 -520 0 -462 1 -482 20
-520 13 -26 34 -47 60 -60 38 -19 58 -20 570 -20 512 0 532 1 570 20 26 13 47
34 60 60 19 38 20 58 20 520 0 462 -1 482 -20 520 -36 71 -69 80 -290 80
l-190 0 0 115 0 115 805 0 805 0 0 -115 0 -115 -190 0 c-221 0 -254 -9 -290
-80 -19 -38 -20 -58 -20 -520 0 -462 1 -482 20 -520 13 -26 34 -47 60 -60 38
-19 58 -20 570 -20 512 0 532 1 570 20 26 13 47 34 60 60 19 38 20 58 20 520
0 462 -1 482 -20 520 -36 71 -69 80 -290 80 l-190 0 0 205 c0 238 -8 268 -80
305 -37 19 -58 20 -455 20 l-415 0 0 114 0 115 199 3 c222 3 233 6 276 79 19
33 20 52 20 519 0 467 -1 486 -20 519 -43 72 -54 76 -275 79 l-198 3 -4 207
c-3 227 -9 249 -71 296 -28 20 -39 21 -458 24 l-429 3 0 114 0 115 190 0 c221
0 254 9 290 80 19 38 20 58 20 520 0 462 -1 482 -20 520 -13 26 -34 47 -60 60
-38 19 -57 20 -572 20 -511 -1 -535 -2 -570 -21z m1372 -1823 l0 -115 -199 -3
c-222 -3 -233 -6 -276 -79 -19 -33 -20 -52 -20 -519 0 -467 1 -486 20 -519 43
-73 54 -76 276 -79 l199 -3 0 -115 0 -114 -800 0 -800 0 0 114 0 115 199 3
c222 3 233 6 276 79 19 33 20 52 20 519 0 467 -1 486 -20 519 -43 73 -54 76
-276 79 l-199 3 0 115 0 114 800 0 800 0 0 -114z"/>
</g>
</svg>
