<?xml version="1.0" standalone="no"?>
<!DOCTYPE svg PUBLIC "-//W3C//DTD SVG 20010904//EN"
 "http://www.w3.org/TR/2001/REC-SVG-20010904/DTD/svg10.dtd">
<svg version="1.0" xmlns="http://www.w3.org/2000/svg"
 width="512.000000pt" height="512.000000pt" viewBox="0 0 512.000000 512.000000"
 preserveAspectRatio="xMidYMid meet">

<g transform="translate(0.000000,512.000000) scale(0.100000,-0.100000)"
fill="#000000" stroke="none">
<path d="M310 5104 c-218 -59 -354 -293 -296 -509 29 -111 107 -213 203 -267
l53 -30 2 -1526 3 -1527 23 -57 c44 -109 131 -196 240 -240 l57 -23 842 -5
842 -5 -231 -355 c-255 -391 -259 -400 -219 -478 38 -74 124 -101 200 -63 32
17 64 60 207 280 l169 261 5 -228 c4 -197 7 -232 23 -255 58 -89 196 -89 254
0 16 23 19 58 23 255 l5 228 169 -261 c180 -277 200 -299 276 -299 77 0 150
74 150 153 0 40 -17 69 -273 462 l-196 300 842 5 842 5 56 23 c111 45 196 129
241 239 l23 58 3 1527 2 1526 53 30 c64 36 137 113 170 178 112 225 10 491
-226 588 l-52 21 -2215 2 c-1926 2 -2222 0 -2270 -13z m4440 -297 c34 -17 70
-74 70 -112 0 -44 -38 -97 -80 -112 -51 -17 -4309 -17 -4360 0 -19 7 -44 27
-57 46 -40 60 -26 126 36 168 l34 23 2166 0 c1713 0 2171 -3 2191 -13z m-200
-2013 c0 -1636 5 -1525 -65 -1558 -30 -14 -223 -16 -1925 -16 -1702 0 -1895 2
-1925 16 -70 33 -65 -78 -65 1558 l0 1476 1990 0 1990 0 0 -1476z"/>
<path d="M1240 3946 c-154 -43 -277 -159 -331 -312 -27 -80 -28 -206 -1 -291
76 -241 331 -382 577 -318 218 57 373 280 351 503 -21 202 -159 367 -351 417
-70 18 -182 19 -245 1z m193 -300 c67 -27 116 -118 103 -189 -15 -80 -79 -138
-159 -145 -155 -13 -248 158 -154 282 47 61 136 83 210 52z"/>
<path d="M3657 3614 c-153 -14 -186 -27 -225 -85 -55 -80 7 -219 98 -219 12 0
20 -5 18 -12 -5 -14 -621 -777 -629 -777 -3 -1 -126 124 -272 278 -226 236
-275 282 -319 301 -60 26 -130 24 -188 -3 -35 -17 -995 -920 -1055 -992 -56
-69 -33 -180 47 -221 39 -20 112 -20 144 1 19 12 551 514 915 862 l46 45 267
-279 c297 -310 321 -328 421 -327 69 0 123 24 171 76 22 23 656 804 680 836 1
2 18 -13 37 -34 31 -34 40 -38 93 -41 75 -5 117 19 145 81 18 42 19 55 9 212
-14 214 -30 256 -115 295 -46 21 -91 22 -288 3z"/>
<path d="M3622 2330 c-46 -28 -76 -98 -67 -152 6 -34 23 -57 90 -127 l83 -86
-83 -86 c-98 -101 -110 -136 -76 -213 28 -64 69 -88 144 -83 58 3 58 4 142 87
l85 85 77 -77 c91 -88 107 -98 165 -98 80 0 148 66 148 143 0 53 -18 81 -99
162 -39 38 -71 74 -71 80 0 6 32 42 71 80 81 80 99 109 99 160 0 73 -53 134
-124 142 -71 8 -94 -3 -183 -90 l-84 -81 -84 84 c-84 83 -84 84 -142 87 -46 3
-65 0 -91 -17z"/>
</g>
</svg>
