<?xml version="1.0" standalone="no"?>
<!DOCTYPE svg PUBLIC "-//W3C//DTD SVG 20010904//EN"
 "http://www.w3.org/TR/2001/REC-SVG-20010904/DTD/svg10.dtd">
<svg version="1.0" xmlns="http://www.w3.org/2000/svg"
 width="512.000000pt" height="512.000000pt" viewBox="0 0 512.000000 512.000000"
 preserveAspectRatio="xMidYMid meet">

<g transform="translate(0.000000,512.000000) scale(0.100000,-0.100000)"
fill="#000000" stroke="none">
<path d="M771 5104 c-138 -37 -263 -152 -310 -284 -8 -24 -16 -28 -65 -34 -72
-9 -182 -65 -240 -120 -56 -55 -90 -109 -116 -185 -20 -61 -20 -68 -18 -2103
l3 -2043 32 -68 c38 -80 122 -173 191 -210 110 -60 36 -57 1582 -57 1546 0
1472 -3 1582 57 68 37 153 130 189 207 l30 64 55 7 c75 9 180 64 243 127 31
31 66 81 89 127 l37 75 3 154 c4 143 6 156 28 189 13 19 26 50 30 69 6 33 8
34 53 34 93 1 187 74 210 166 11 43 12 44 52 44 22 0 53 7 68 14 42 22 89 80
101 125 l10 40 47 -21 c32 -14 57 -18 82 -14 50 8 271 92 300 114 35 26 61 81
61 129 0 55 -329 944 -362 981 -34 35 -72 52 -119 52 -61 0 -294 -87 -335
-125 -33 -32 -60 -103 -50 -138 4 -17 1 -18 -25 -13 -16 3 -55 16 -87 28 l-57
23 -5 1130 c-5 1242 -1 1151 -64 1260 -31 52 -121 137 -174 164 -104 53 -45
51 -1577 50 -1208 0 -1428 -2 -1474 -15z m2949 -143 c75 -29 134 -81 169 -153
l31 -61 0 -1092 0 -1092 -52 9 c-49 7 -161 -2 -202 -18 -13 -5 -15 90 -18 933
l-4 938 -23 64 c-48 130 -159 238 -289 280 -62 21 -76 21 -1397 21 -734 0
-1335 4 -1335 8 0 17 59 90 94 117 19 14 56 35 83 45 46 18 103 19 1470 20
1381 0 1424 -1 1473 -19z m-1650 -710 l0 -400 22 -15 c12 -9 40 -16 61 -16 33
0 68 20 251 144 l212 144 199 -135 c110 -74 209 -138 220 -142 29 -12 70 6 84
35 7 17 11 142 11 404 l0 380 63 0 c83 0 145 -22 202 -72 56 -49 90 -106 104
-176 13 -64 16 -1872 3 -1872 -5 0 -35 10 -68 21 -74 27 -212 29 -334 6 -165
-30 -157 -31 -182 14 -12 22 -36 48 -53 58 -40 25 -277 101 -312 101 -42 -1
-107 -34 -130 -66 -11 -16 -81 -218 -156 -449 -178 -551 -170 -525 -157 -574
19 -71 60 -101 206 -148 71 -24 148 -43 171 -43 l42 0 -22 -48 c-28 -63 -28
-143 2 -200 26 -51 90 -100 143 -108 35 -6 38 -9 38 -41 0 -71 50 -147 122
-184 39 -20 141 -26 166 -10 10 6 28 -6 61 -39 53 -53 118 -76 183 -65 21 4
38 3 38 -2 0 -19 74 -95 112 -114 24 -12 60 -20 90 -21 l50 0 -4 -118 c-4
-108 -7 -123 -36 -183 -39 -78 -93 -128 -169 -157 -53 -20 -76 -20 -1473 -20
-1377 0 -1421 1 -1470 19 -78 30 -134 81 -172 159 l-33 67 0 2005 c0 1907 1
2008 18 2057 25 72 88 140 162 174 l60 29 838 0 837 0 0 -399z m920 89 c0
-170 -3 -310 -6 -310 -3 0 -82 52 -176 115 -94 63 -180 115 -193 115 -12 0
-108 -58 -213 -130 -105 -71 -194 -130 -197 -130 -3 0 -5 146 -5 325 l0 325
395 0 395 0 0 -310z m1783 -2107 c209 -563 198 -530 184 -541 -7 -6 -63 -29
-125 -53 -97 -36 -115 -40 -127 -28 -7 8 -86 211 -175 452 -121 324 -160 441
-152 449 16 16 202 86 233 87 25 1 30 -10 162 -366z m-2096 320 c63 -20 117
-43 120 -50 6 -17 -273 -892 -291 -910 -8 -9 -37 -4 -126 24 -63 19 -121 41
-128 48 -11 10 12 91 128 451 78 241 146 447 151 457 13 23 14 23 146 -20z
m717 -132 l29 -12 -155 -157 c-177 -180 -194 -209 -158 -266 30 -49 85 -95
150 -125 45 -21 69 -25 135 -25 69 1 101 8 232 52 91 31 169 52 196 52 36 0
81 -19 257 -110 227 -118 337 -185 370 -227 22 -28 27 -91 10 -124 -7 -12 -21
-19 -38 -19 -16 0 -131 56 -277 136 -140 76 -262 136 -277 137 -58 1 -90 -71
-50 -110 9 -10 104 -65 211 -122 109 -59 199 -114 208 -128 20 -30 10 -87 -20
-108 -42 -29 -76 -18 -286 95 -123 66 -216 110 -233 110 -30 0 -68 -30 -68
-55 0 -42 26 -64 162 -136 77 -41 150 -84 164 -96 31 -28 33 -84 4 -113 -42
-42 -58 -37 -249 62 -176 91 -181 93 -208 78 -27 -15 -28 -15 -58 30 -36 54
-97 90 -158 92 -40 2 -47 6 -52 28 -18 75 -116 150 -196 150 -33 0 -38 3 -44
29 -10 45 -79 117 -130 137 -44 16 -113 16 -159 -2 -25 -10 -25 -11 103 386
l108 335 79 7 c44 4 113 14 154 22 81 16 197 15 244 -3z m488 8 c29 -7 105
-32 168 -57 83 -32 132 -45 175 -47 l60 -2 87 -234 c48 -129 96 -258 107 -287
13 -33 16 -50 8 -45 -6 4 -37 24 -67 44 -30 20 -156 90 -280 155 l-225 119
-90 -1 c-82 0 -104 -5 -241 -52 -89 -31 -168 -52 -193 -52 -47 0 -100 21 -126
50 -16 18 -13 23 76 116 205 213 336 298 461 303 15 1 51 -4 80 -10z m-1037
-905 c14 -15 25 -36 25 -47 0 -22 -91 -200 -118 -229 -25 -29 -86 -24 -111 8
-12 15 -21 35 -21 46 0 26 108 226 128 238 31 18 72 11 97 -16z m236 -173 c39
-31 30 -72 -45 -211 -37 -69 -75 -131 -84 -137 -24 -20 -79 -16 -102 7 -34 34
-25 72 46 203 37 67 73 130 82 140 20 23 74 22 103 -2z m240 -180 c16 -16 29
-37 29 -46 0 -28 -91 -194 -117 -215 -35 -27 -69 -25 -100 6 -34 34 -28 64 32
175 62 114 101 134 156 80z m233 -202 c14 -11 26 -26 26 -33 0 -27 -70 -156
-94 -171 -20 -13 -29 -14 -48 -5 -62 32 -73 86 -32 156 44 76 96 94 148 53z
m200 -20 c48 -38 29 -115 -26 -107 -16 2 -22 9 -20 23 1 11 3 39 5 62 1 24 5
43 8 43 4 0 18 -9 33 -21z m143 -293 c-34 -73 -79 -120 -149 -156 -99 -49 -98
-50 -98 93 l0 124 49 -10 c40 -9 57 -7 95 7 46 18 114 84 118 115 1 9 3 -15 5
-52 3 -56 0 -78 -20 -121z"/>
<path d="M752 3324 c-26 -18 -30 -69 -8 -100 14 -19 37 -19 1085 -19 995 0
1071 1 1087 17 25 25 22 77 -5 100 -22 17 -68 18 -1080 18 -940 0 -1059 -2
-1079 -16z"/>
<path d="M765 2748 c-28 -16 -35 -28 -35 -65 0 -65 -16 -63 593 -63 367 0 555
4 568 11 48 25 39 109 -13 123 -44 11 -1092 6 -1113 -6z"/>
<path d="M747 2152 c-22 -25 -21 -75 1 -95 17 -15 72 -17 579 -17 544 0 560 1
578 20 9 10 18 31 18 45 0 14 -9 35 -18 45 -18 19 -34 20 -580 20 -532 0 -563
-1 -578 -18z"/>
<path d="M752 1574 c-29 -20 -30 -76 -2 -104 20 -20 33 -20 574 -20 523 0 555
1 577 18 31 26 31 78 0 104 -22 17 -54 18 -575 18 -483 0 -554 -2 -574 -16z"/>
</g>
</svg>
