<?xml version="1.0" standalone="no"?>
<!DOCTYPE svg PUBLIC "-//W3C//DTD SVG 20010904//EN"
 "http://www.w3.org/TR/2001/REC-SVG-20010904/DTD/svg10.dtd">
<svg version="1.0" xmlns="http://www.w3.org/2000/svg"
 width="512.000000pt" height="512.000000pt" viewBox="0 0 512.000000 512.000000"
 preserveAspectRatio="xMidYMid meet">

<g transform="translate(0.000000,512.000000) scale(0.100000,-0.100000)"
fill="#000000" stroke="none">
<path d="M1286 5108 c-154 -29 -301 -142 -375 -290 -50 -99 -65 -169 -58 -283
15 -281 232 -497 512 -512 169 -9 299 40 421 162 81 80 126 162 149 270 27
127 12 239 -47 361 -40 83 -137 186 -219 232 -108 61 -257 85 -383 60z"/>
<path d="M4235 4957 c-236 -55 -432 -102 -434 -103 -5 -5 9 -87 17 -101 6 -10
113 12 443 89 238 56 436 103 438 105 7 5 -20 113 -27 112 -4 0 -200 -46 -437
-102z"/>
<path d="M2840 4796 c-437 -77 -797 -141 -799 -143 -2 -1 -12 -90 -22 -195
-10 -106 -20 -214 -23 -239 l-5 -47 117 -48 c186 -76 194 -81 188 -112 -3 -15
-8 -58 -11 -96 -6 -64 -10 -72 -53 -118 -130 -139 -413 -188 -635 -110 -43 15
-52 23 -75 71 -37 75 -100 142 -191 201 -86 58 -141 77 -244 86 -192 16 -405
-89 -480 -238 -21 -41 -59 -201 -159 -659 -112 -520 -131 -617 -132 -699 -1
-87 2 -100 31 -162 17 -37 52 -89 77 -116 l46 -49 0 -941 c0 -916 1 -943 20
-995 52 -139 208 -215 355 -172 46 13 70 28 115 73 96 97 90 24 90 1046 l0
891 46 25 c26 13 68 44 95 68 86 77 97 112 211 647 56 264 104 484 108 488 4
5 47 0 96 -9 106 -21 304 -23 413 -6 223 37 453 163 562 308 18 24 37 44 42
44 5 0 65 -25 134 -55 69 -31 127 -54 129 -52 3 2 10 65 16 140 6 75 15 142
18 148 5 6 111 -34 294 -110 158 -67 291 -121 295 -121 7 0 135 1359 129 1382
-2 11 -154 -12 -798 -126z m-229 -882 c177 -74 165 -61 151 -166 l-7 -47 -46
20 c-40 18 -46 25 -57 65 -18 67 -84 129 -156 145 -43 9 -56 16 -56 31 0 10 3
18 6 18 3 0 77 -30 165 -66z"/>
<path d="M3808 4208 c-2 -29 -3 -54 -2 -56 2 -3 932 -61 992 -62 8 0 12 19 12
60 l0 60 -32 0 c-18 0 -222 11 -453 25 -231 14 -441 25 -467 25 l-46 0 -4 -52z"/>
<path d="M3730 3674 c-18 -25 -30 -47 -28 -48 32 -23 745 -479 754 -483 10 -4
64 71 64 89 0 6 -744 488 -753 488 -4 0 -20 -21 -37 -46z"/>
</g>
</svg>
