<?xml version="1.0" standalone="no"?>
<!DOCTYPE svg PUBLIC "-//W3C//DTD SVG 20010904//EN"
 "http://www.w3.org/TR/2001/REC-SVG-20010904/DTD/svg10.dtd">
<svg version="1.0" xmlns="http://www.w3.org/2000/svg"
 width="512.000000pt" height="512.000000pt" viewBox="0 0 512.000000 512.000000"
 preserveAspectRatio="xMidYMid meet">

<g transform="translate(0.000000,512.000000) scale(0.100000,-0.100000)"
fill="#000000" stroke="none">
<path d="M1445 4928 c-147 -54 -347 -104 -475 -118 -124 -15 -317 -8 -409 15
-35 8 -66 13 -69 10 -10 -9 132 -282 231 -447 105 -173 241 -385 356 -552 l74
-109 21 29 c48 68 177 190 256 241 47 31 102 67 122 81 21 13 54 44 73 68 l36
44 -15 107 c-13 90 -40 317 -72 616 -3 31 -9 57 -12 56 -4 0 -56 -19 -117 -41z"/>
<path d="M285 4398 c4 -18 18 -78 33 -132 32 -123 71 -179 223 -315 98 -89
509 -404 516 -397 2 2 -37 62 -87 134 -108 157 -217 323 -321 490 l-76 123
-128 59 c-173 81 -169 80 -160 38z"/>
<path d="M1850 4152 c-62 -91 -183 -212 -254 -252 -123 -70 -255 -195 -324
-311 -12 -20 -33 -66 -47 -102 -14 -37 -43 -93 -65 -126 -70 -103 -108 -220
-117 -366 -7 -121 11 -194 91 -358 35 -73 76 -168 89 -213 75 -240 84 -492 27
-733 -44 -184 -85 -263 -436 -848 -183 -307 -334 -568 -334 -581 0 -36 19 -62
55 -78 52 -21 1329 -21 1380 1 33 13 45 34 188 322 83 169 169 358 190 418 21
61 61 161 89 224 l51 113 228 184 c125 101 231 188 234 194 3 5 -38 79 -91
164 -79 126 -102 156 -120 156 -41 0 -53 11 -151 138 -160 206 -368 439 -717
805 -89 92 -164 176 -168 187 -4 12 1 45 12 81 25 78 25 150 1 229 -14 43 -17
70 -11 85 5 13 40 48 77 78 158 126 232 252 233 397 0 58 -24 167 -47 219
l-18 40 -45 -67z m-195 -2273 c175 -54 342 -155 457 -278 87 -92 145 -193 134
-234 -13 -53 -69 -81 -121 -61 -9 4 -32 32 -52 63 -20 31 -52 76 -71 99 -78
96 -246 198 -406 247 -96 31 -118 48 -119 101 -1 28 5 42 27 60 33 29 64 30
151 3z"/>
<path d="M2125 3977 c0 -99 -4 -135 -22 -192 -32 -101 -87 -187 -179 -279
l-81 -81 5 -107 5 -108 46 108 c54 124 180 347 281 497 74 111 83 141 56 194
-8 15 -26 35 -40 45 -15 9 -36 23 -49 31 l-22 14 0 -122z"/>
<path d="M2428 3853 c-35 -9 -256 -363 -347 -555 -58 -121 -77 -177 -90 -255
-9 -58 -9 -58 29 -103 21 -25 52 -58 68 -73 l30 -29 42 38 c49 44 154 200 265
394 84 147 168 279 221 349 47 61 47 110 1 145 -32 25 -181 97 -195 95 -4 -1
-15 -3 -24 -6z"/>
<path d="M720 3571 c0 -14 50 -284 53 -287 1 -1 35 -3 74 -5 l73 -4 29 61 29
61 -77 55 c-42 30 -100 71 -128 92 -29 21 -53 33 -53 27z"/>
<path d="M2731 3438 c-30 -45 -109 -175 -177 -288 -144 -241 -192 -312 -264
-385 l-52 -55 102 -115 c56 -63 103 -115 105 -115 2 0 11 24 21 53 55 170 204
400 402 624 99 112 114 145 93 214 -16 52 -54 95 -112 124 -27 14 -52 25 -56
25 -4 0 -32 -37 -62 -82z"/>
<path d="M2984 3025 c-208 -231 -361 -494 -385 -659 l-8 -60 52 -68 c28 -37
54 -68 58 -68 26 0 128 93 284 260 102 109 225 235 274 281 l90 82 -45 88
c-54 109 -91 151 -157 182 -94 44 -88 46 -163 -38z"/>
<path d="M3666 2780 c-100 -12 -114 -17 -128 -44 -7 -14 -49 -55 -93 -92 -95
-79 -345 -332 -345 -348 0 -6 28 -22 63 -35 175 -67 565 -293 856 -496 287
-200 298 -205 406 -205 l85 0 0 28 c0 75 125 541 255 952 18 58 36 115 40 128
6 21 4 22 -50 22 -86 0 -321 28 -515 61 -190 33 -442 46 -574 29z"/>
<path d="M2903 2102 l-52 -48 365 -584 c201 -322 368 -587 370 -589 2 -2 32 4
66 13 315 87 585 200 705 295 l32 25 -62 89 c-34 49 -71 96 -82 104 -104 73
-657 434 -750 490 -156 93 -337 183 -448 222 -49 17 -89 31 -90 31 -1 -1 -25
-22 -54 -48z"/>
</g>
</svg>
