<?xml version="1.0" standalone="no"?>
<!DOCTYPE svg PUBLIC "-//W3C//DTD SVG 20010904//EN"
 "http://www.w3.org/TR/2001/REC-SVG-20010904/DTD/svg10.dtd">
<svg version="1.0" xmlns="http://www.w3.org/2000/svg"
 width="512.000000pt" height="512.000000pt" viewBox="0 0 512.000000 512.000000"
 preserveAspectRatio="xMidYMid meet">

<g transform="translate(0.000000,512.000000) scale(0.100000,-0.100000)"
fill="#000000" stroke="none">
<path d="M1030 5098 c-41 -11 -76 -21 -77 -22 -2 -2 127 -516 167 -667 l10
-36 73 19 c39 11 77 21 84 23 8 3 -13 99 -68 317 -104 408 -99 388 -107 387
-4 0 -41 -10 -82 -21z"/>
<path d="M3750 4901 c0 -6 -9 -72 -20 -148 -23 -157 -49 -217 -118 -270 -83
-63 -215 -67 -303 -8 -21 13 -79 79 -129 145 l-91 120 -140 -106 c-99 -74
-137 -109 -131 -117 67 -86 168 -229 179 -256 18 -41 19 -128 2 -179 -26 -82
-106 -154 -193 -172 -42 -9 -79 -7 -196 10 -79 11 -145 18 -147 16 -5 -5 -54
-338 -51 -341 2 -1 57 -10 123 -19 179 -25 219 -39 274 -94 94 -94 107 -228
33 -336 -15 -21 -80 -79 -144 -128 l-118 -89 105 -139 106 -140 100 76 c142
107 185 128 265 126 119 -1 217 -76 250 -188 16 -56 16 -65 -5 -208 -11 -82
-19 -151 -17 -154 5 -4 339 -52 342 -49 1 1 12 67 23 146 16 110 27 155 48
193 52 96 145 145 255 135 93 -8 137 -42 246 -185 l93 -122 140 106 c99 74
137 109 131 117 -67 86 -166 227 -177 254 -22 53 -19 158 5 209 31 64 98 120
167 140 56 16 64 16 208 -4 82 -11 151 -19 153 -17 5 4 53 337 50 341 -2 1
-68 12 -147 23 -110 16 -155 27 -193 48 -96 52 -145 145 -135 255 8 93 42 137
185 246 85 65 120 97 114 105 -5 7 -51 68 -102 137 -51 69 -95 127 -96 129 -2
2 -58 -37 -125 -87 -66 -49 -138 -95 -159 -101 -145 -43 -295 37 -337 178 -15
52 -14 64 6 205 11 82 19 151 17 153 -3 4 -315 52 -338 53 -5 0 -8 -4 -8 -9z
m160 -823 c176 -64 307 -213 345 -393 18 -87 18 -122 0 -208 -45 -214 -225
-384 -440 -417 -268 -42 -533 145 -590 417 -18 86 -18 121 0 208 43 206 209
370 420 415 66 15 194 4 265 -22z"/>
<path d="M2500 4653 c-371 -27 -728 -191 -995 -458 -497 -496 -608 -1257 -272
-1875 111 -205 258 -370 472 -530 157 -117 206 -169 250 -263 44 -94 55 -178
55 -425 0 -177 3 -202 21 -242 37 -83 101 -131 195 -150 40 -8 179 -10 434 -8
416 3 411 3 488 72 22 20 50 60 63 89 21 48 23 70 29 312 7 278 11 298 67 394
40 69 96 124 202 200 102 72 218 174 291 255 37 40 41 48 23 44 -35 -9 -563
69 -590 88 -43 27 -45 52 -18 235 33 223 32 231 -6 263 -33 28 -59 32 -91 15
-12 -6 -83 -58 -160 -115 -76 -57 -150 -107 -163 -110 -56 -14 -70 0 -242 228
-91 122 -171 234 -176 248 -21 54 -5 74 162 199 87 66 161 127 165 136 16 44
1 96 -34 115 -10 6 -99 22 -196 36 -97 14 -187 29 -200 34 -13 5 -30 23 -38
39 -15 27 -13 50 24 306 22 151 44 285 50 295 6 11 22 27 35 36 23 15 39 14
223 -12 192 -27 201 -27 226 -10 33 21 50 57 43 88 -4 13 -52 84 -107 158 -56
74 -108 147 -116 162 -23 45 -18 77 21 114 19 18 35 35 35 38 0 6 -86 5 -170
-1z m-490 -605 c22 -35 40 -68 40 -74 0 -5 -28 -31 -62 -56 -125 -92 -237
-226 -310 -373 -77 -153 -108 -289 -108 -467 0 -286 100 -534 295 -733 118
-121 213 -183 407 -268 169 -75 317 -231 385 -407 23 -60 38 -126 48 -207 l6
-53 -91 0 -90 0 0 38 c0 101 -72 261 -152 341 -70 71 -113 99 -235 154 -129
59 -197 101 -300 182 -213 170 -369 429 -430 715 -24 118 -24 364 0 475 58
256 163 451 337 626 83 84 190 169 212 169 4 0 26 -28 48 -62z m700 -2948 l0
-130 -90 0 -90 0 0 130 0 130 90 0 90 0 0 -130z"/>
<path d="M252 4579 c-24 -34 -45 -66 -48 -73 -3 -8 575 -432 605 -443 11 -4
103 139 95 146 -15 14 -603 431 -606 431 -2 0 -22 -28 -46 -61z"/>
<path d="M400 3690 c-280 -70 -345 -90 -344 -103 1 -9 9 -48 19 -87 14 -56 21
-70 34 -66 9 3 165 42 346 87 182 45 332 84 334 85 6 5 -31 164 -38 168 -3 2
-161 -36 -351 -84z"/>
<path d="M953 2780 c-16 -67 -44 -104 -99 -130 -73 -36 -114 -26 -245 61
l-110 73 -80 -80 -80 -80 60 -85 c86 -126 94 -143 89 -209 -8 -107 -54 -143
-236 -180 l-113 -23 3 -106 3 -105 125 -28 c173 -38 211 -70 218 -181 l4 -64
-77 -113 -77 -113 80 -80 80 -80 107 74 108 74 68 0 c114 0 154 -46 188 -212
13 -59 25 -116 27 -125 5 -16 19 -18 104 -18 54 0 101 4 104 8 3 5 17 62 31
128 28 131 50 172 106 203 41 23 117 28 152 10 12 -6 66 -41 120 -77 l98 -66
91 92 92 91 -13 38 c-8 21 -27 58 -44 81 -28 42 -47 58 -199 171 l-68 50 -36
-55 c-64 -96 -181 -179 -298 -210 -70 -19 -210 -18 -277 2 -183 54 -332 211
-369 391 -17 82 -8 225 19 295 64 165 207 292 373 330 57 13 55 -3 18 163 -32
142 -33 144 -47 85z"/>
<path d="M4003 2548 c-18 -5 -40 -19 -48 -31 -13 -21 -70 -365 -61 -374 8 -8
111 165 158 265 46 97 48 105 33 122 -21 24 -43 28 -82 18z"/>
<path d="M4290 1760 l0 -90 310 0 311 0 -3 88 -3 87 -307 3 -308 2 0 -90z"/>
<path d="M4201 1318 c-28 -35 -51 -65 -50 -68 0 -3 118 -102 261 -221 l261
-217 53 62 c30 33 53 66 53 71 0 10 -497 426 -516 432 -6 2 -33 -25 -62 -59z"/>
<path d="M3760 835 l0 -305 90 0 90 0 0 305 0 305 -90 0 -90 0 0 -305z"/>
<path d="M2270 530 l0 -90 350 0 350 0 0 90 0 90 -350 0 -350 0 0 -90z"/>
<path d="M2272 186 c3 -65 7 -79 33 -112 57 -70 73 -74 312 -74 225 0 250 4
297 48 40 38 56 81 56 152 l0 60 -351 0 -351 0 4 -74z"/>
</g>
</svg>
