<?xml version="1.0" standalone="no"?>
<!DOCTYPE svg PUBLIC "-//W3C//DTD SVG 20010904//EN"
 "http://www.w3.org/TR/2001/REC-SVG-20010904/DTD/svg10.dtd">
<svg version="1.0" xmlns="http://www.w3.org/2000/svg"
 width="90.000000pt" height="90.000000pt" viewBox="0 0 90.000000 90.000000"
 preserveAspectRatio="xMidYMid meet">

<g transform="translate(0.000000,90.000000) scale(0.100000,-0.100000)"
fill="#000000" stroke="none">
<path d="M360 788 c-68 -35 -90 -86 -86 -197 3 -82 5 -89 44 -148 23 -34 42
-72 42 -85 -1 -38 -36 -69 -102 -89 -110 -33 -153 -71 -165 -143 l-6 -36 167
0 166 0 0 106 c0 103 1 106 29 135 20 19 40 29 60 29 17 0 31 5 31 10 0 6 20
41 44 78 l44 67 -2 92 c-1 76 -5 96 -22 120 -12 15 -30 30 -40 32 -10 2 -32
14 -47 27 -37 31 -97 32 -157 2z"/>
<path d="M620 340 c-11 -11 -20 -24 -20 -30 0 -5 -26 -10 -57 -12 l-58 -3 0
-85 0 -85 69 -3 c55 -2 72 0 78 13 12 21 104 21 116 0 6 -13 23 -15 78 -13
l69 3 0 85 0 85 -57 3 c-32 2 -58 7 -58 12 0 27 -42 50 -90 50 -37 0 -55 -5
-70 -20z"/>
<path d="M482 33 l3 -28 205 0 205 0 3 27 3 28 -211 0 -211 0 3 -27z"/>
</g>
</svg>
