<?xml version="1.0" standalone="no"?>
<!DOCTYPE svg PUBLIC "-//W3C//DTD SVG 20010904//EN"
 "http://www.w3.org/TR/2001/REC-SVG-20010904/DTD/svg10.dtd">
<svg version="1.0" xmlns="http://www.w3.org/2000/svg"
 width="512.000000pt" height="512.000000pt" viewBox="0 0 512.000000 512.000000"
 preserveAspectRatio="xMidYMid meet">

<g transform="translate(0.000000,512.000000) scale(0.100000,-0.100000)"
fill="#000000" stroke="none">
<path d="M1445 5044 c-46 -14 -101 -66 -747 -712 -612 -611 -698 -701 -698
-727 0 -26 86 -116 693 -723 471 -473 705 -700 732 -713 54 -25 137 -24 195 2
49 22 271 234 322 308 24 33 32 57 36 107 9 114 -1 129 -261 392 l-231 232
1725 0 1724 0 50 24 c60 28 87 56 114 116 18 40 21 65 21 244 0 122 -4 214
-12 237 -15 51 -69 114 -122 142 l-41 22 -1730 3 -1729 2 231 233 c150 150
237 245 247 269 20 48 20 138 1 186 -19 46 -284 315 -338 343 -52 27 -121 32
-182 13z m113 -148 c15 -8 82 -70 150 -139 175 -178 192 -130 -178 -502 -261
-262 -300 -305 -300 -331 0 -19 9 -39 23 -52 l23 -22 1823 -2 1823 -3 24 -28
c23 -27 24 -32 24 -207 0 -187 -6 -219 -44 -239 -15 -8 -520 -12 -1839 -14
l-1819 -2 -19 -24 c-10 -13 -19 -37 -19 -54 0 -28 36 -67 300 -332 291 -291
300 -302 300 -339 0 -37 -8 -47 -133 -173 -126 -125 -136 -133 -173 -133 -38
0 -51 12 -691 652 l-653 653 637 637 c351 351 651 644 668 653 37 18 40 18 73
1z"/>
<path d="M1327 4503 c-93 -93 -175 -181 -182 -197 -23 -52 14 -106 72 -106 9
0 99 82 200 182 162 162 183 186 183 215 0 40 -33 73 -74 73 -25 0 -56 -26
-199 -167z"/>
<path d="M3020 3673 c-51 -19 -68 -85 -30 -123 20 -20 33 -20 613 -20 553 0
595 1 609 18 37 41 28 100 -19 121 -25 11 -1142 15 -1173 4z"/>
<path d="M4453 3670 c-46 -19 -57 -83 -20 -118 21 -20 34 -22 134 -22 109 0
112 1 132 26 12 15 21 33 21 40 0 26 -23 62 -47 73 -28 13 -188 14 -220 1z"/>
<path d="M3500 2949 c-49 -22 -271 -234 -322 -308 -24 -33 -32 -57 -36 -107
-9 -114 1 -129 261 -391 l231 -233 -1725 0 -1724 0 -50 -24 c-60 -28 -87 -56
-114 -116 -18 -40 -21 -65 -21 -244 0 -122 4 -214 12 -237 15 -51 69 -114 122
-142 l41 -22 1730 -3 1729 -2 -231 -233 c-150 -150 -237 -245 -247 -269 -20
-48 -20 -138 -1 -186 20 -46 284 -315 340 -345 55 -29 145 -29 205 0 33 16
235 213 733 710 600 602 687 692 687 718 0 26 -87 117 -692 723 -472 473 -706
700 -733 713 -54 25 -137 24 -195 -2z m787 -781 l653 -653 -637 -637 c-351
-351 -653 -645 -671 -654 -50 -24 -73 -9 -216 135 -118 119 -126 130 -126 166
0 38 10 49 300 340 261 262 300 305 300 331 0 19 -9 39 -23 52 l-23 22 -1823
2 -1823 3 -24 28 c-23 27 -24 32 -24 207 0 187 6 219 44 239 15 8 520 12 1839
14 l1819 2 19 24 c10 13 19 37 19 54 0 28 -36 67 -300 332 -291 291 -300 302
-300 339 0 37 8 47 133 173 126 125 136 133 173 133 38 0 51 -12 691 -652z"/>
<path d="M3555 2550 c-10 -11 -18 -34 -18 -51 0 -26 25 -56 179 -210 167 -168
181 -179 216 -179 43 0 68 27 68 74 0 26 -27 57 -178 208 -164 164 -180 178
-213 178 -23 0 -42 -7 -54 -20z"/>
<path d="M341 1564 c-24 -31 -26 -43 -9 -79 7 -16 24 -29 47 -36 24 -6 230 -9
604 -7 l569 3 19 24 c25 30 24 76 -1 101 -20 20 -33 20 -614 20 l-595 0 -20
-26z"/>
<path d="M1789 1572 c-30 -25 -30 -75 0 -105 20 -20 32 -22 130 -22 126 0 151
12 151 72 0 61 -24 73 -149 73 -91 0 -113 -3 -132 -18z"/>
</g>
</svg>
