<?xml version="1.0" standalone="no"?>
<!DOCTYPE svg PUBLIC "-//W3C//DTD SVG 20010904//EN"
 "http://www.w3.org/TR/2001/REC-SVG-20010904/DTD/svg10.dtd">
<svg version="1.0" xmlns="http://www.w3.org/2000/svg"
 width="512.000000pt" height="512.000000pt" viewBox="0 0 512.000000 512.000000"
 preserveAspectRatio="xMidYMid meet">

<g transform="translate(0.000000,512.000000) scale(0.100000,-0.100000)"
fill="#000000" stroke="none">
<path d="M269 5097 c-18 -12 -39 -34 -46 -47 -10 -19 -13 -186 -13 -730 0
-690 1 -706 20 -738 27 -44 74 -62 160 -62 l70 0 2 -1427 c3 -1343 4 -1430 21
-1460 28 -52 61 -63 187 -63 l110 0 0 -110 c0 -119 10 -155 52 -184 20 -14
156 -16 1276 -16 l1253 0 63 -54 c337 -285 810 -271 1117 34 67 66 143 173
174 245 27 63 55 157 55 188 0 37 -32 67 -73 67 -45 0 -61 -20 -91 -115 -43
-136 -125 -255 -230 -333 -213 -157 -470 -184 -701 -72 -180 87 -315 254 -360
443 -19 80 -19 235 0 316 70 293 346 511 650 511 103 0 199 -24 303 -75 154
-77 278 -219 333 -382 12 -37 29 -68 40 -74 33 -17 80 -7 103 24 18 25 19 31
8 74 -51 191 -220 393 -413 493 l-79 41 0 1477 c-1 1182 -3 1482 -14 1500 -27
50 -62 62 -183 62 l-113 0 0 110 c0 121 -10 155 -54 184 -23 15 -127 16 -1221
16 l-1195 0 0 40 c0 53 -23 96 -63 120 -31 19 -54 20 -573 20 l-541 0 -34 -23z
m1061 -622 l0 -496 -57 59 c-32 32 -79 71 -104 86 l-46 29 33 48 c50 75 67
137 62 232 -6 143 -80 257 -206 319 -62 31 -74 33 -167 33 -87 0 -107 -3 -157
-27 -75 -35 -138 -95 -175 -165 -38 -72 -44 -100 -44 -183 0 -80 22 -149 65
-210 l33 -46 -59 -39 c-33 -22 -80 -62 -104 -89 l-44 -48 0 496 0 496 485 0
485 0 0 -495z m2470 235 l0 -80 -890 0 c-877 0 -890 0 -910 -20 -30 -30 -27
-83 6 -109 27 -21 30 -21 1065 -21 l1039 0 0 -1424 0 -1424 -95 5 c-380 23
-719 -213 -835 -582 -28 -88 -38 -278 -21 -381 10 -57 43 -153 88 -252 4 -9
-231 -12 -1156 -12 l-1161 0 0 1555 0 1555 223 0 c251 0 278 6 309 70 16 32
18 76 18 463 l0 427 119 0 c105 0 121 2 145 21 33 26 36 79 6 109 -18 18 -33
20 -145 20 l-125 0 0 80 0 80 1160 0 1160 0 0 -80z m-2867 -85 c86 -36 137
-114 137 -212 0 -129 -95 -224 -225 -225 -196 -2 -299 227 -171 378 56 68 174
95 259 59z m-138 -584 c29 -5 78 -4 118 1 65 10 70 9 131 -21 110 -54 232
-205 261 -323 l7 -28 -467 0 -467 0 6 28 c27 114 139 256 253 319 61 34 77 37
158 24z m-15 -1921 l0 -1400 -80 0 -80 0 0 1400 0 1400 80 0 80 0 0 -1400z"/>
<path d="M2100 4030 c-30 -30 -27 -83 6 -109 26 -20 37 -21 414 -21 377 0 388
1 414 21 34 27 36 79 4 109 -21 19 -33 20 -420 20 -385 0 -399 -1 -418 -20z"/>
<path d="M1841 3644 c-26 -33 -27 -65 -2 -95 l19 -24 639 -3 c351 -1 648 0
661 3 32 8 62 41 62 69 0 13 -9 35 -21 50 l-20 26 -659 0 -659 0 -20 -26z"/>
<path d="M1275 3018 c-49 -26 -60 -79 -25 -116 l21 -22 1248 0 1248 0 21 23
c36 38 28 88 -19 112 -24 13 -197 15 -1251 15 -866 -1 -1229 -4 -1243 -12z"/>
<path d="M1273 2640 c-46 -19 -57 -83 -20 -118 l23 -22 1245 0 1246 0 21 23
c27 29 28 67 3 98 l-19 24 -1239 2 c-701 1 -1247 -2 -1260 -7z"/>
<path d="M1273 2260 c-46 -19 -57 -83 -20 -118 l23 -22 1246 0 1247 0 20 26
c26 33 27 65 2 95 l-19 24 -1239 2 c-701 1 -1247 -2 -1260 -7z"/>
<path d="M1294 1680 c-12 -4 -31 -21 -43 -36 -20 -25 -21 -37 -21 -238 0 -234
4 -250 60 -279 31 -16 62 -17 298 -15 l264 3 29 33 29 32 0 223 c0 213 -1 224
-21 246 -11 12 -32 26 -46 32 -30 11 -520 11 -549 -1z m466 -280 l0 -140 -190
0 -190 0 0 140 0 140 190 0 190 0 0 -140z"/>
<path d="M1255 905 c-14 -13 -25 -36 -25 -50 0 -14 11 -37 25 -50 l24 -25 516
0 516 0 24 25 c14 13 25 36 25 50 0 14 -11 37 -25 50 l-24 25 -516 0 -516 0
-24 -25z"/>
<path d="M4595 4611 c-22 -10 -55 -33 -72 -51 -67 -69 -64 -5 -61 -1165 l3
-1050 68 -175 c73 -190 94 -220 152 -220 58 0 79 30 152 220 l68 175 3 452 c3
444 2 453 -18 473 -30 30 -83 27 -109 -6 -20 -26 -21 -38 -21 -335 l0 -309
-75 0 -75 0 0 908 0 909 23 21 c33 31 80 29 106 -4 21 -26 21 -37 21 -464 0
-427 0 -438 21 -464 26 -33 79 -36 109 -6 19 19 20 33 20 474 0 295 -4 465
-11 483 -46 125 -188 187 -304 134z m165 -2175 c0 -32 -68 -241 -76 -233 -13
13 -74 205 -74 232 l0 35 75 0 75 0 0 -34z"/>
<path d="M4305 1110 c-11 -5 -112 -101 -225 -214 l-204 -206 -127 125 c-138
137 -158 147 -204 100 -49 -48 -40 -64 138 -242 147 -147 166 -163 197 -163
31 0 55 21 282 248 233 233 248 250 248 284 0 57 -52 91 -105 68z"/>
</g>
</svg>
