<?xml version="1.0" standalone="no"?>
<!DOCTYPE svg PUBLIC "-//W3C//DTD SVG 20010904//EN"
 "http://www.w3.org/TR/2001/REC-SVG-20010904/DTD/svg10.dtd">
<svg version="1.0" xmlns="http://www.w3.org/2000/svg"
 width="512.000000pt" height="512.000000pt" viewBox="0 0 512.000000 512.000000"
 preserveAspectRatio="xMidYMid meet">

<g transform="translate(0.000000,512.000000) scale(0.100000,-0.100000)"
fill="#000000" stroke="none">
<path d="M1528 4697 c-61 -23 -121 -63 -179 -119 -79 -77 -802 -956 -829
-1008 -27 -53 -37 -144 -20 -194 16 -49 54 -92 104 -119 38 -20 57 -22 268
-25 l228 -4 2 -1311 3 -1312 22 -41 c30 -56 94 -109 162 -134 51 -20 72 -21
335 -18 l281 3 51 27 c63 33 126 103 142 156 9 29 12 371 12 1336 l0 1296 203
0 c111 0 222 5 247 11 56 13 100 42 131 87 20 30 24 47 24 117 0 67 -4 89 -25
128 -32 61 -731 909 -825 1002 -39 39 -97 83 -128 98 -67 34 -154 44 -209 24z"/>
<path d="M3247 4699 c-87 -20 -166 -81 -203 -155 -18 -38 -19 -76 -22 -1351
l-2 -1313 -217 0 c-244 0 -279 -6 -333 -60 -66 -66 -77 -179 -28 -275 30 -60
775 -962 847 -1026 31 -28 84 -64 118 -81 55 -27 70 -30 130 -26 89 5 148 34
236 117 95 90 805 952 840 1020 66 131 13 286 -111 321 -20 5 -135 10 -254 10
l-218 0 0 1308 c0 1294 -1 1307 -21 1352 -36 80 -99 130 -196 155 -65 17 -498
20 -566 4z"/>
</g>
</svg>
